<?xml version="1.0" encoding="UTF-8" standalone="no"?>
<!-- Generator: Adobe Illustrator 18.0.0, SVG Export Plug-In . SVG Version: 6.00 Build 0)  -->

<svg
   xmlns:dc="http://purl.org/dc/elements/1.1/"
   xmlns:cc="http://creativecommons.org/ns#"
   xmlns:rdf="http://www.w3.org/1999/02/22-rdf-syntax-ns#"
   xmlns:svg="http://www.w3.org/2000/svg"
   xmlns="http://www.w3.org/2000/svg"
   xmlns:sodipodi="http://sodipodi.sourceforge.net/DTD/sodipodi-0.dtd"
   xmlns:inkscape="http://www.inkscape.org/namespaces/inkscape"
   version="1.1"
   id="Capa_1"
   x="0px"
   y="0px"
   viewBox="0 0 488.091 488.091"
   style="enable-background:new 0 0 488.091 488.091;"
   xml:space="preserve"
   sodipodi:docname="4_linea_dati.svg"
   inkscape:version="0.92.2 2405546, 2018-03-11"><metadata
   id="metadata39"><rdf:RDF><cc:Work
       rdf:about=""><dc:format>image/svg+xml</dc:format><dc:type
         rdf:resource="http://purl.org/dc/dcmitype/StillImage" /></cc:Work></rdf:RDF></metadata><defs
   id="defs37" /><sodipodi:namedview
   pagecolor="#ffffff"
   bordercolor="#666666"
   borderopacity="1"
   objecttolerance="10"
   gridtolerance="10"
   guidetolerance="10"
   inkscape:pageopacity="0"
   inkscape:pageshadow="2"
   inkscape:window-width="1220"
   inkscape:window-height="683"
   id="namedview35"
   showgrid="false"
   inkscape:zoom="0.48351639"
   inkscape:cx="-180.96595"
   inkscape:cy="244.0455"
   inkscape:window-x="0"
   inkscape:window-y="0"
   inkscape:window-maximized="0"
   inkscape:current-layer="Capa_1" />
<path
   d="m 388.73655,131.57781 h 42.20851 c 17.83907,0 32.28715,-14.46067 32.28715,-32.298829 V 57.070464 c 0,-17.841761 -14.44808,-32.30152 -32.28715,-32.30152 h -42.20851 c -17.84267,0 -32.3141,14.459759 -32.3141,32.30152 V 67.12302 h -27.4244 c -16.05372,0 -29.14684,13.080544 -29.14684,29.147742 V 232.99021 H 258.28782 C 252.69279,173.62909 202.63935,127.02774 141.8514,127.02774 c -64.508698,0 -116.992603,52.4848 -116.992603,117.01237 0,64.52667 52.483905,117.00878 116.992603,117.00878 60.78795,0 110.84139,-46.59865 116.43642,-105.96157 h 41.56339 v 136.73382 c 0,16.07169 13.09312,29.14775 29.14684,29.14775 h 27.4244 v 10.05704 c 0,17.83907 14.47053,32.29613 32.3141,32.29613 h 42.20851 c 17.83907,0 32.28715,-14.45706 32.28715,-32.29613 v -42.21032 c 0,-17.84086 -14.44808,-32.30152 -32.28715,-32.30152 h -42.20851 c -17.84267,0 -32.3141,14.46066 -32.3141,32.30152 v 10.05346 h -27.4244 c -3.88337,0 -7.04972,-3.16366 -7.04972,-7.04972 V 255.08912 h 34.47322 v 10.05435 c 0,17.84626 14.47054,32.30152 32.3141,32.30152 h 42.20851 c 17.83907,0 32.28715,-14.45526 32.28715,-32.30152 v -42.20672 c 0,-17.83996 -14.44808,-32.30062 -32.28715,-32.30062 h -42.20761 c -17.84267,0 -32.3141,14.46066 -32.3141,32.30062 v 10.05346 H 321.94923 V 96.27166 c 0,-3.880675 3.16545,-7.048829 7.04972,-7.048829 h 27.42439 v 10.055252 c -8.9e-4,17.839057 14.46964,32.299727 32.31321,32.299727 z m -283.36565,22.2885 c -6.877217,9.14865 -12.633087,20.84549 -16.892036,34.44087 -13.337517,3.68301 -25.090059,8.68682 -34.758952,14.75986 10.35895,-22.24176 28.829669,-39.92538 51.650988,-49.20073 z M 45.460787,231.3055 c 6.676845,-10.19722 20.514835,-19.01702 38.557862,-25.14487 -1.915629,9.7237 -3.107056,20.10062 -3.507792,30.96003 H 44.885739 c 0.142864,-1.95696 0.33155,-3.89954 0.575048,-5.81516 z m 0.401635,27.98776 c -0.340536,-2.13217 -0.690956,-4.24458 -0.888629,-6.41807 h 35.537064 c 0.400736,10.84594 1.592163,21.23364 3.507792,30.97531 -17.6971,-6.01375 -31.361676,-14.63138 -38.156227,-24.55724 z m 9.152247,28.42803 c 9.41012,5.70915 20.717898,10.47306 33.464195,13.96828 3.840242,12.25391 8.877303,22.99203 14.876666,31.69322 -20.974869,-9.07947 -38.084342,-25.34793 -48.340861,-45.6615 z m 78.954981,52.51176 c -10.34457,-4.18976 -20.35759,-16.38976 -27.50617,-34.52804 8.73265,1.46728 17.96756,2.34153 27.50617,2.6614 z m 0,-47.59419 c -11.56385,-0.44028 -22.64521,-1.86892 -32.88915,-4.08375 -2.61467,-10.64916 -4.346104,-22.61826 -4.833097,-35.67992 h 37.722247 z m 0,-55.5182 H 96.246504 c 0.486994,-13.06166 2.218427,-25.01638 4.833096,-35.67902 10.24395,-2.21393 21.3253,-3.6237 32.88915,-4.08374 v 39.76276 z m 0,-55.49032 c -9.53861,0.33155 -18.77441,1.2076 -27.50617,2.67487 7.14858,-18.14186 17.1625,-30.35803 27.50617,-34.51455 z m 96.01772,21.43581 c -9.66889,-6.07305 -21.42143,-11.07686 -34.75894,-14.75987 -4.25895,-13.59538 -10.01392,-25.29222 -16.88755,-34.44087 22.81773,9.27625 41.28755,26.95987 51.64649,49.20074 z m -80.24972,-53.27549 c 10.34547,4.15652 20.35759,16.37269 27.50706,34.51455 -8.73265,-1.46817 -17.96846,-2.34332 -27.50706,-2.67487 z m 0,47.56724 c 11.56924,0.46004 22.64609,1.86981 32.89004,4.08374 2.63354,10.66264 4.33982,22.61736 4.8331,35.67902 h -37.72314 z m 0,55.51729 h 37.72314 c -0.49328,13.06166 -2.19956,25.03076 -4.8331,35.67992 -10.24395,2.21483 -21.3208,3.64347 -32.89004,4.08375 z m 0,87.35786 v -31.86664 c 9.5386,-0.31897 18.77441,-1.19412 27.50706,-2.6614 -7.14857,18.13738 -17.16159,30.33828 -27.50706,34.52804 z m 30.61591,-6.84936 c 6.01194,-8.70209 11.0499,-19.44021 14.87576,-31.69322 12.7472,-3.5087 24.05408,-8.25913 33.4651,-13.96828 -10.25832,20.31267 -27.36689,36.58113 -48.34086,45.6615 z m 57.48771,-74.09043 c -6.78646,9.92676 -20.45553,18.53002 -38.12477,24.54466 1.88777,-9.72909 3.09447,-20.11679 3.48532,-30.96273 h 35.53168 c -0.20127,2.17349 -0.54181,4.2859 -0.89223,6.41807 z m -34.63945,-22.1726 c -0.39085,-10.85941 -1.59755,-21.23633 -3.48532,-30.96003 18.01516,6.14133 31.85406,14.94855 38.5309,25.14487 0.2435,1.91562 0.43129,3.8582 0.57505,5.81516 z"
   id="path2"
   style="fill:#000000;fill-opacity:1;stroke:#000000;stroke-width:0.89851236;stroke-opacity:1"
   inkscape:connector-curvature="0" />
<g
   id="g4">
</g>
<g
   id="g6">
</g>
<g
   id="g8">
</g>
<g
   id="g10">
</g>
<g
   id="g12">
</g>
<g
   id="g14">
</g>
<g
   id="g16">
</g>
<g
   id="g18">
</g>
<g
   id="g20">
</g>
<g
   id="g22">
</g>
<g
   id="g24">
</g>
<g
   id="g26">
</g>
<g
   id="g28">
</g>
<g
   id="g30">
</g>
<g
   id="g32">
</g>
</svg>