<?xml version="1.0" encoding="UTF-8" standalone="no"?>
<!-- Generator: Adobe Illustrator 16.0.0, SVG Export Plug-In . SVG Version: 6.00 Build 0)  -->

<svg
   xmlns:dc="http://purl.org/dc/elements/1.1/"
   xmlns:cc="http://creativecommons.org/ns#"
   xmlns:rdf="http://www.w3.org/1999/02/22-rdf-syntax-ns#"
   xmlns:svg="http://www.w3.org/2000/svg"
   xmlns="http://www.w3.org/2000/svg"
   xmlns:sodipodi="http://sodipodi.sourceforge.net/DTD/sodipodi-0.dtd"
   xmlns:inkscape="http://www.inkscape.org/namespaces/inkscape"
   version="1.1"
   id="Capa_1"
   x="0px"
   y="0px"
   width="275.725px"
   height="275.725px"
   viewBox="0 0 275.725 275.725"
   style="enable-background:new 0 0 275.725 275.725;"
   xml:space="preserve"
   sodipodi:docname="7_pvr.svg"
   inkscape:version="0.92.2 2405546, 2018-03-11"><metadata
   id="metadata43"><rdf:RDF><cc:Work
       rdf:about=""><dc:format>image/svg+xml</dc:format><dc:type
         rdf:resource="http://purl.org/dc/dcmitype/StillImage" /></cc:Work></rdf:RDF></metadata><defs
   id="defs41" /><sodipodi:namedview
   pagecolor="#ffffff"
   bordercolor="#666666"
   borderopacity="1"
   objecttolerance="10"
   gridtolerance="10"
   guidetolerance="10"
   inkscape:pageopacity="0"
   inkscape:pageshadow="2"
   inkscape:window-width="1152"
   inkscape:window-height="625"
   id="namedview39"
   showgrid="false"
   inkscape:zoom="1.2104611"
   inkscape:cx="160.40301"
   inkscape:cy="152.07335"
   inkscape:window-x="115"
   inkscape:window-y="55"
   inkscape:window-maximized="0"
   inkscape:current-layer="Capa_1" />

<g
   id="g8">
</g>
<g
   id="g10">
</g>
<g
   id="g12">
</g>
<g
   id="g14">
</g>
<g
   id="g16">
</g>
<g
   id="g18">
</g>
<g
   id="g20">
</g>
<g
   id="g22">
</g>
<g
   id="g24">
</g>
<g
   id="g26">
</g>
<g
   id="g28">
</g>
<g
   id="g30">
</g>
<g
   id="g32">
</g>
<g
   id="g34">
</g>
<g
   id="g36">
</g>
<g
   id="g6"
   transform="matrix(0.79689675,0,0,0.79689675,28.000722,8.7551579)"
   style="fill:#000000;fill-opacity:1;stroke:#000000;stroke-opacity:1">
	<g
   id="g4"
   style="fill:#000000;fill-opacity:1;stroke:#000000;stroke-opacity:1">
		<path
   d="M 137.862,0 C 61.726,0 0,61.726 0,137.862 c 0,76.14 61.726,137.862 137.862,137.862 76.139,0 137.862,-61.723 137.862,-137.862 C 275.725,61.726 214.001,0 137.862,0 Z m -28.93097,133.33659 -49.968997,28.656 c -8.606,4.93 -15.583,0.891 -15.583,-9.041 V 95.836589 c 0,-9.926002 6.978,-13.973002 15.583,-9.030002 l 49.968997,28.656003 c 8.606,4.934 8.606,12.934 0,17.874 z m 73.32493,18.299 c 0,9.922 -5.442,17.968 -12.169,17.968 -6.722,0 -12.171,-8.046 -12.171,-17.968 V 97.151589 c 0,-9.921002 5.449,-17.971002 12.171,-17.971002 6.727,0 12.169,8.05 12.169,17.971002 z m 50.507,0 c 0,9.922 -5.447,17.968 -12.174,17.968 -6.726,0 -12.174,-8.046 -12.174,-17.968 V 97.151589 c 0,-9.921002 5.448,-17.971002 12.174,-17.971002 6.727,0 12.174,8.05 12.174,17.971002 z"
   id="path2"
   inkscape:connector-curvature="0"
   sodipodi:nodetypes="ssscsccsscccssssssssssssss"
   style="fill:#000000;fill-opacity:1;stroke:#000000;stroke-opacity:1" />
	</g>
</g><g
   id="g929"
   transform="matrix(0.94444741,0,0,0.94444741,7.6586173,6.8662631)"><rect
   ry="0"
   y="181.93683"
   x="1.7524891"
   height="93.466103"
   width="272.22003"
   id="rect922"
   style="opacity:1;fill:#000000;fill-opacity:1;stroke:none;stroke-width:4.33757973;stroke-linecap:round;stroke-linejoin:bevel;stroke-miterlimit:4;stroke-dasharray:none;stroke-opacity:1;paint-order:normal" /><text
   transform="scale(1.0210557,0.9793785)"
   id="text850"
   y="277.93967"
   x="-8.1415586"
   style="font-style:normal;font-weight:normal;font-size:121.96089935px;line-height:1.25;font-family:sans-serif;letter-spacing:0px;word-spacing:0px;fill:#ffde00;fill-opacity:1;stroke:#685b00;stroke-width:5.03669405;stroke-linecap:round;stroke-linejoin:bevel;stroke-miterlimit:4;stroke-dasharray:none;stroke-opacity:1"
   xml:space="preserve"><tspan
     style="font-style:normal;font-variant:normal;font-weight:bold;font-stretch:normal;font-family:sans-serif;-inkscape-font-specification:'sans-serif Bold';fill:#ffde00;fill-opacity:1;stroke:#685b00;stroke-width:5.03669405;stroke-linecap:round;stroke-linejoin:bevel;stroke-miterlimit:4;stroke-dasharray:none;stroke-opacity:1"
     y="277.93967"
     x="-8.1415586"
     id="tspan848"
     sodipodi:role="line">PVR</tspan></text>



</g>
</svg>