<?xml version="1.0" encoding="UTF-8" standalone="no"?>
<!-- Generator: Adobe Illustrator 19.1.0, SVG Export Plug-In . SVG Version: 6.00 Build 0)  -->

<svg
   xmlns:dc="http://purl.org/dc/elements/1.1/"
   xmlns:cc="http://creativecommons.org/ns#"
   xmlns:rdf="http://www.w3.org/1999/02/22-rdf-syntax-ns#"
   xmlns:svg="http://www.w3.org/2000/svg"
   xmlns="http://www.w3.org/2000/svg"
   xmlns:sodipodi="http://sodipodi.sourceforge.net/DTD/sodipodi-0.dtd"
   xmlns:inkscape="http://www.inkscape.org/namespaces/inkscape"
   version="1.1"
   id="Capa_1"
   x="0px"
   y="0px"
   viewBox="0 0 330.731 330.731"
   style="enable-background:new 0 0 330.731 330.731;"
   xml:space="preserve"
   sodipodi:docname="10_log_seriale.svg"
   inkscape:version="0.92.2 2405546, 2018-03-11"><metadata
   id="metadata41"><rdf:RDF><cc:Work
       rdf:about=""><dc:format>image/svg+xml</dc:format><dc:type
         rdf:resource="http://purl.org/dc/dcmitype/StillImage" /></cc:Work></rdf:RDF></metadata><defs
   id="defs39">

</defs><sodipodi:namedview
   pagecolor="#ffffff"
   bordercolor="#666666"
   borderopacity="1"
   objecttolerance="10"
   gridtolerance="10"
   guidetolerance="10"
   inkscape:pageopacity="0"
   inkscape:pageshadow="2"
   inkscape:window-width="1368"
   inkscape:window-height="667"
   id="namedview37"
   showgrid="false"
   inkscape:zoom="0.71357087"
   inkscape:cx="309.80731"
   inkscape:cy="122.5534"
   inkscape:window-x="0"
   inkscape:window-y="0"
   inkscape:window-maximized="0"
   inkscape:current-layer="Capa_1" />
















<g
   id="g909"
   transform="matrix(0.93519071,0,0,0.93519071,10.71735,13.896575)"><g
     id="g887"><path
       style="fill:#fdfdfd;fill-opacity:1;stroke:#000000;stroke-width:12;stroke-miterlimit:10;stroke-dasharray:none;stroke-opacity:1"
       inkscape:connector-curvature="0"
       id="path28"
       d="m 321.44775,47.801548 v 0 c 0.24388,3.170417 0,6.584712 -0.73163,9.755128 l -14.38881,60.725674 c -6.09696,26.09497 -13.65718,41.94704 -38.77664,41.94704 H 63.180736 c -25.119455,0 -32.679679,-15.85207 -38.776634,-41.94704 L 10.015288,57.800554 C 9.2836538,54.38626 9.0397753,50.971965 9.2836538,48.045426 c 0,-1.463268 0,-2.926538 0.2438775,-4.389807 C 11.722436,32.193343 24.160224,23.169849 37.329647,23.169849 H 293.40176 c 13.16942,0 25.6072,9.023494 27.80211,20.48577 0.24388,1.463269 0.24388,2.926539 0.24388,4.145929 z"
       class="st0" /><g
       id="g60"
       transform="matrix(2.438782,0,0,2.438782,0.01628179,-178.7613)"
       style="fill:#000000;fill-opacity:1;stroke:#000000;stroke-width:0.82008147;stroke-linecap:round;stroke-miterlimit:10;stroke-dasharray:none;stroke-opacity:1"><path
         style="fill:#000000;fill-opacity:1;stroke:#000000;stroke-width:0.82008147;stroke-linecap:round;stroke-miterlimit:10;stroke-dasharray:none;stroke-opacity:1"
         inkscape:connector-curvature="0"
         id="path30"
         d="m 113.4,106.8 c -2.3,0 -4.2,1.9 -4.2,4.2 0,2.3 1.9,4.1 4.2,4.1 2.3,0 4.2,-1.9 4.2,-4.1 -0.1,-2.4 -1.9,-4.2 -4.2,-4.2 z"
         class="st1" /><path
         style="fill:#000000;fill-opacity:1;stroke:#000000;stroke-width:0.82008147;stroke-linecap:round;stroke-miterlimit:10;stroke-dasharray:none;stroke-opacity:1"
         inkscape:connector-curvature="0"
         id="path32"
         d="m 94.2,106.8 c -2.3,0 -4.1,1.9 -4.1,4.2 0,2.3 1.9,4.1 4.1,4.1 2.3,0 4.2,-1.9 4.2,-4.1 0,-2.4 -1.9,-4.2 -4.2,-4.2 z"
         class="st1" /><path
         style="fill:#000000;fill-opacity:1;stroke:#000000;stroke-width:0.82008147;stroke-linecap:round;stroke-miterlimit:10;stroke-dasharray:none;stroke-opacity:1"
         inkscape:connector-curvature="0"
         id="path34"
         d="m 75.1,106.8 c -2.3,0 -4.2,1.9 -4.2,4.2 0,2.3 1.9,4.1 4.2,4.1 2.3,0 4.2,-1.9 4.2,-4.1 -0.1,-2.4 -1.9,-4.2 -4.2,-4.2 z"
         class="st1" /><path
         style="fill:#000000;fill-opacity:1;stroke:#000000;stroke-width:0.82008147;stroke-linecap:round;stroke-miterlimit:10;stroke-dasharray:none;stroke-opacity:1"
         inkscape:connector-curvature="0"
         id="path36"
         d="m 55.9,106.8 c -2.3,0 -4.1,1.9 -4.1,4.2 0,2.3 1.9,4.1 4.1,4.1 2.3,0 4.2,-1.9 4.2,-4.1 0,-2.4 -1.9,-4.2 -4.2,-4.2 z"
         class="st1" /><path
         style="fill:#000000;fill-opacity:1;stroke:#000000;stroke-width:0.82008147;stroke-linecap:round;stroke-miterlimit:10;stroke-dasharray:none;stroke-opacity:1"
         inkscape:connector-curvature="0"
         id="path38"
         d="m 36.8,106.8 c -2.3,0 -4.1,1.9 -4.1,4.2 0,2.3 1.9,4.1 4.1,4.1 2.3,0 4.2,-1.9 4.2,-4.1 -0.1,-2.4 -1.9,-4.2 -4.2,-4.2 z"
         class="st1" /><path
         style="fill:#000000;fill-opacity:1;stroke:#000000;stroke-width:0.82008147;stroke-linecap:round;stroke-miterlimit:10;stroke-dasharray:none;stroke-opacity:1"
         inkscape:connector-curvature="0"
         id="path40"
         d="m 103.8,120.8 c -2.3,0 -4.1,1.9 -4.1,4.2 0,2.3 1.9,4.1 4.1,4.1 2.3,0 4.2,-1.9 4.2,-4.1 -0.1,-2.3 -1.9,-4.2 -4.2,-4.2 z"
         class="st1" /><path
         style="fill:#000000;fill-opacity:1;stroke:#000000;stroke-width:0.82008147;stroke-linecap:round;stroke-miterlimit:10;stroke-dasharray:none;stroke-opacity:1"
         inkscape:connector-curvature="0"
         id="path42"
         d="m 84.6,120.8 c -2.3,0 -4.1,1.9 -4.1,4.2 0,2.3 1.9,4.1 4.1,4.1 2.3,0 4.2,-1.9 4.2,-4.1 0,-2.3 -1.9,-4.2 -4.2,-4.2 z"
         class="st1" /><path
         style="fill:#000000;fill-opacity:1;stroke:#000000;stroke-width:0.82008147;stroke-linecap:round;stroke-miterlimit:10;stroke-dasharray:none;stroke-opacity:1"
         inkscape:connector-curvature="0"
         id="path44"
         d="m 65.5,120.8 c -2.3,0 -4.1,1.9 -4.1,4.2 0,2.3 1.9,4.1 4.1,4.1 2.3,0 4.2,-1.9 4.2,-4.1 0,-2.3 -1.9,-4.2 -4.2,-4.2 z"
         class="st1" /><path
         style="fill:#000000;fill-opacity:1;stroke:#000000;stroke-width:0.82008147;stroke-linecap:round;stroke-miterlimit:10;stroke-dasharray:none;stroke-opacity:1"
         inkscape:connector-curvature="0"
         id="path46"
         d="m 46.4,120.8 c -2.3,0 -4.2,1.9 -4.2,4.2 0,2.3 1.9,4.1 4.2,4.1 2.3,0 4.2,-1.9 4.2,-4.1 -0.1,-2.3 -1.9,-4.2 -4.2,-4.2 z"
         class="st1" /><path
         style="fill:#000000;fill-opacity:1;stroke:#000000;stroke-width:0.82008147;stroke-linecap:round;stroke-miterlimit:10;stroke-dasharray:none;stroke-opacity:1"
         inkscape:connector-curvature="0"
         id="path48"
         d="m 27.2,120.8 c -2.3,0 -4.2,1.9 -4.2,4.2 0,2.3 1.9,4.1 4.2,4.1 2.3,0 4.2,-1.9 4.2,-4.1 0,-2.3 -1.9,-4.2 -4.2,-4.2 z"
         class="st1" /><path
         style="fill:#000000;fill-opacity:1;stroke:#000000;stroke-width:0.82008147;stroke-linecap:round;stroke-miterlimit:10;stroke-dasharray:none;stroke-opacity:1"
         inkscape:connector-curvature="0"
         id="path50"
         d="m 103.8,92.7 c -2.3,0 -4.1,1.9 -4.1,4.2 0,2.3 1.9,4.1 4.1,4.1 2.3,0 4.2,-1.9 4.2,-4.1 -0.1,-2.3 -1.9,-4.2 -4.2,-4.2 z"
         class="st1" /><path
         style="fill:#000000;fill-opacity:1;stroke:#000000;stroke-width:0.82008147;stroke-linecap:round;stroke-miterlimit:10;stroke-dasharray:none;stroke-opacity:1"
         inkscape:connector-curvature="0"
         id="path52"
         d="m 84.6,92.7 c -2.3,0 -4.1,1.9 -4.1,4.2 0,2.3 1.9,4.1 4.1,4.1 2.3,0 4.2,-1.9 4.2,-4.1 0,-2.3 -1.9,-4.2 -4.2,-4.2 z"
         class="st1" /><path
         style="fill:#000000;fill-opacity:1;stroke:#000000;stroke-width:0.82008147;stroke-linecap:round;stroke-miterlimit:10;stroke-dasharray:none;stroke-opacity:1"
         inkscape:connector-curvature="0"
         id="path54"
         d="m 65.5,92.7 c -2.3,0 -4.1,1.9 -4.1,4.2 0,2.3 1.9,4.1 4.1,4.1 2.3,0 4.2,-1.9 4.2,-4.1 0,-2.3 -1.9,-4.2 -4.2,-4.2 z"
         class="st1" /><path
         style="fill:#000000;fill-opacity:1;stroke:#000000;stroke-width:0.82008147;stroke-linecap:round;stroke-miterlimit:10;stroke-dasharray:none;stroke-opacity:1"
         inkscape:connector-curvature="0"
         id="path56"
         d="m 46.4,92.7 c -2.3,0 -4.2,1.9 -4.2,4.2 0,2.3 1.9,4.1 4.2,4.1 2.3,0 4.2,-1.9 4.2,-4.1 -0.1,-2.3 -1.9,-4.2 -4.2,-4.2 z"
         class="st1" /><path
         style="fill:#000000;fill-opacity:1;stroke:#000000;stroke-width:0.82008147;stroke-linecap:round;stroke-miterlimit:10;stroke-dasharray:none;stroke-opacity:1"
         inkscape:connector-curvature="0"
         id="path58"
         d="m 27.2,92.7 c -2.3,0 -4.2,1.9 -4.2,4.2 0,2.3 1.9,4.1 4.2,4.1 2.3,0 4.2,-1.9 4.2,-4.1 0,-2.3 -1.9,-4.2 -4.2,-4.2 z"
         class="st1" /></g></g><text
     id="text945"
     y="303.33636"
     x="18.248903"
     style="font-style:normal;font-weight:normal;font-size:128.48391724px;line-height:1.25;font-family:sans-serif;letter-spacing:0px;word-spacing:0px;fill:#000000;fill-opacity:1;stroke:#000000;stroke-width:3.21209788;stroke-opacity:1"
     xml:space="preserve"><tspan
       style="font-style:normal;font-variant:normal;font-weight:bold;font-stretch:normal;font-family:sans-serif;-inkscape-font-specification:'sans-serif Bold';stroke:#000000;stroke-width:3.21209788;stroke-opacity:1"
       y="303.33636"
       x="18.248903"
       id="tspan943"
       sodipodi:role="line">LOG</tspan></text>
</g>

</svg>