<?xml version="1.0" encoding="UTF-8" standalone="no"?>
<!-- Generator: Adobe Illustrator 19.0.0, SVG Export Plug-In . SVG Version: 6.00 Build 0)  -->

<svg
   xmlns:dc="http://purl.org/dc/elements/1.1/"
   xmlns:cc="http://creativecommons.org/ns#"
   xmlns:rdf="http://www.w3.org/1999/02/22-rdf-syntax-ns#"
   xmlns:svg="http://www.w3.org/2000/svg"
   xmlns="http://www.w3.org/2000/svg"
   xmlns:sodipodi="http://sodipodi.sourceforge.net/DTD/sodipodi-0.dtd"
   xmlns:inkscape="http://www.inkscape.org/namespaces/inkscape"
   version="1.1"
   id="Capa_1"
   x="0px"
   y="0px"
   viewBox="0 0 300.00001 300.00001"
   xml:space="preserve"
   sodipodi:docname="1_ir_check.svg"
   inkscape:version="0.92.2 2405546, 2018-03-11"
   width="300"
   height="300"><metadata
   id="metadata63"><rdf:RDF><cc:Work
       rdf:about=""><dc:format>image/svg+xml</dc:format><dc:type
         rdf:resource="http://purl.org/dc/dcmitype/StillImage" /><dc:title /></cc:Work></rdf:RDF></metadata><defs
   id="defs61" /><sodipodi:namedview
   pagecolor="#ffffff"
   bordercolor="#666666"
   borderopacity="1"
   objecttolerance="10"
   gridtolerance="10"
   guidetolerance="10"
   inkscape:pageopacity="0"
   inkscape:pageshadow="2"
   inkscape:window-width="1223"
   inkscape:window-height="720"
   id="namedview59"
   showgrid="false"
   inkscape:zoom="0.87565368"
   inkscape:cx="132.227"
   inkscape:cy="53.516609"
   inkscape:window-x="0"
   inkscape:window-y="0"
   inkscape:window-maximized="0"
   inkscape:current-layer="Capa_1" />
<g
   id="g26"
   style="fill:#000000;fill-opacity:1"
   transform="matrix(0.53143708,0,0,0.54687411,13.952108,9.9999099)">
	<g
   id="g24"
   style="fill:#000000;fill-opacity:1">
		<g
   id="g22"
   style="fill:#000000;fill-opacity:1">
			<path
   d="M 320,192.001 H 192 c -26.51,0 -48,21.49 -48,48 v 224 c 0,26.51 21.49,48 48,48 h 128 c 26.51,0 48,-21.49 48,-48 v -224 c 0,-26.51 -21.49,-48 -48,-48 z m 16,272 c 0,8.837 -7.163,16 -16,16 H 192 c -8.837,0 -16,-7.163 -16,-16 v -224 c 0,-8.837 7.163,-16 16,-16 h 128 c 8.837,0 16,7.163 16,16 z"
   id="path2"
   style="fill:#000000;fill-opacity:1"
   inkscape:connector-curvature="0" />
			<path
   d="M 256,0.001 C 198.682,-0.154 143.685,22.627 103.264,63.265 l 22.624,22.624 C 197.742,14.03 314.244,14.026 386.103,85.88 c 0.003,0.003 0.006,0.006 0.009,0.009 L 408.736,63.265 C 368.319,22.622 313.319,-0.159 256,0.001 Z"
   id="path4"
   style="fill:#000000;fill-opacity:1"
   inkscape:connector-curvature="0" />
			<path
   d="m 363.488,108.529 c -59.36,-59.359 -155.6,-59.359 -214.96,0 l 22.672,22.672 c 46.851,-46.793 122.749,-46.793 169.6,0 z"
   id="path6"
   style="fill:#000000;fill-opacity:1"
   inkscape:connector-curvature="0" />
			<rect
   x="208"
   y="272.00101"
   width="32"
   height="32"
   id="rect8"
   style="fill:#000000;fill-opacity:1" />
			<rect
   x="272"
   y="272.00101"
   width="32"
   height="32"
   id="rect10"
   style="fill:#000000;fill-opacity:1" />
			<rect
   x="208"
   y="336.00101"
   width="32"
   height="32"
   id="rect12"
   style="fill:#000000;fill-opacity:1" />
			<rect
   x="272"
   y="336.00101"
   width="32"
   height="32"
   id="rect14"
   style="fill:#000000;fill-opacity:1" />
			<rect
   x="208"
   y="400.00101"
   width="32"
   height="32"
   id="rect16"
   style="fill:#000000;fill-opacity:1" />
			<rect
   x="272"
   y="400.00101"
   width="32"
   height="32"
   id="rect18"
   style="fill:#000000;fill-opacity:1" />
			<rect
   x="240"
   y="128.00101"
   width="32"
   height="32"
   id="rect20"
   style="fill:#000000;fill-opacity:1" />
		</g>
	</g>
</g>
<g
   id="g28"
   transform="translate(0,-212.00098)">
</g>
<g
   id="g30"
   transform="translate(0,-212.00098)">
</g>
<g
   id="g32"
   transform="translate(0,-212.00098)">
</g>
<g
   id="g34"
   transform="translate(0,-212.00098)">
</g>
<g
   id="g36"
   transform="translate(0,-212.00098)">
</g>
<g
   id="g38"
   transform="translate(0,-212.00098)">
</g>
<g
   id="g40"
   transform="translate(0,-212.00098)">
</g>
<g
   id="g42"
   transform="translate(0,-212.00098)">
</g>
<g
   id="g44"
   transform="translate(0,-212.00098)">
</g>
<g
   id="g46"
   transform="translate(0,-212.00098)">
</g>
<g
   id="g48"
   transform="translate(0,-212.00098)">
</g>
<g
   id="g50"
   transform="translate(0,-212.00098)">
</g>
<g
   id="g52"
   transform="translate(0,-212.00098)">
</g>
<g
   id="g54"
   transform="translate(0,-212.00098)">
</g>
<g
   id="g56"
   transform="translate(0,-212.00098)">
</g>
</svg>