<?xml version="1.0" encoding="UTF-8" standalone="no"?>
<!-- Generator: Adobe Illustrator 16.0.0, SVG Export Plug-In . SVG Version: 6.00 Build 0)  -->

<svg
   xmlns:dc="http://purl.org/dc/elements/1.1/"
   xmlns:cc="http://creativecommons.org/ns#"
   xmlns:rdf="http://www.w3.org/1999/02/22-rdf-syntax-ns#"
   xmlns:svg="http://www.w3.org/2000/svg"
   xmlns="http://www.w3.org/2000/svg"
   xmlns:sodipodi="http://sodipodi.sourceforge.net/DTD/sodipodi-0.dtd"
   xmlns:inkscape="http://www.inkscape.org/namespaces/inkscape"
   version="1.1"
   id="Capa_1"
   x="0px"
   y="0px"
   width="300"
   height="300"
   viewBox="0 0 300 300"
   xml:space="preserve"
   sodipodi:docname="2_ch_change_av.svg"
   inkscape:version="0.92.2 2405546, 2018-03-11"><metadata
   id="metadata41"><rdf:RDF><cc:Work
       rdf:about=""><dc:format>image/svg+xml</dc:format><dc:type
         rdf:resource="http://purl.org/dc/dcmitype/StillImage" /><dc:title /></cc:Work></rdf:RDF></metadata><defs
   id="defs39" /><sodipodi:namedview
   pagecolor="#ffffff"
   bordercolor="#666666"
   borderopacity="1"
   objecttolerance="10"
   gridtolerance="10"
   guidetolerance="10"
   inkscape:pageopacity="0"
   inkscape:pageshadow="2"
   inkscape:window-width="1314"
   inkscape:window-height="817"
   id="namedview37"
   showgrid="false"
   inkscape:zoom="0.84986284"
   inkscape:cx="-73.47485"
   inkscape:cy="130.9131"
   inkscape:window-x="228"
   inkscape:window-y="33"
   inkscape:window-maximized="0"
   inkscape:current-layer="Capa_1" />

<g
   id="g6"
   transform="translate(0,205.929)">
</g>
<g
   id="g8"
   transform="translate(0,205.929)">
</g>
<g
   id="g10"
   transform="translate(0,205.929)">
</g>
<g
   id="g12"
   transform="translate(0,205.929)">
</g>
<g
   id="g14"
   transform="translate(0,205.929)">
</g>
<g
   id="g16"
   transform="translate(0,205.929)">
</g>
<g
   id="g18"
   transform="translate(0,205.929)">
</g>
<g
   id="g20"
   transform="translate(0,205.929)">
</g>
<g
   id="g22"
   transform="translate(0,205.929)">
</g>
<g
   id="g24"
   transform="translate(0,205.929)">
</g>
<g
   id="g26"
   transform="translate(0,205.929)">
</g>
<g
   id="g28"
   transform="translate(0,205.929)">
</g>
<g
   id="g30"
   transform="translate(0,205.929)">
</g>
<g
   id="g32"
   transform="translate(0,205.929)">
</g>
<g
   id="g34"
   transform="translate(0,205.929)">
</g>
<g
   id="g29"
   transform="matrix(3.1444995,0,0,3.0989348,2.1302743,4.4828775)"><g
   style="fill:#369e31;fill-opacity:1;stroke:#369e31;stroke-opacity:1"
   transform="matrix(0.90438944,0,0,0.85803454,-0.0720466,2.3894615)"
   id="g4">
	<path
   style="fill:#369e31;fill-opacity:1;stroke:#369e31;stroke-opacity:1"
   inkscape:connector-curvature="0"
   id="path2"
   d="m 24.931,52.67 c 0,-0.215 0.051,-0.415 0.138,-0.593 0.226,-0.502 0.723,-0.845 1.3,-0.845 0.584,0 1.08,0.343 1.306,0.845 0.082,0.178 0.133,0.378 0.133,0.593 0,0.794 -0.642,1.437 -1.439,1.437 -0.791,-10e-4 -1.438,-0.643 -1.438,-1.437 z m 3.877,7.601 c 0.695,0.41 1.605,0.684 2.631,0.684 1.03,0 1.936,-0.273 2.63,-0.684 0.401,-0.242 0.749,-0.516 0.961,-0.838 -0.596,0.402 -1.425,0.698 -2.37,0.838 -0.39,0.055 -0.797,0.096 -1.222,0.096 -0.43,0 -0.833,-0.041 -1.223,-0.096 -0.945,-0.144 -1.772,-0.438 -2.375,-0.838 0.216,0.322 0.564,0.595 0.968,0.838 z m 7.7,-6.165 c 0.796,0 1.44,-0.643 1.44,-1.437 0,-0.215 -0.054,-0.415 -0.136,-0.593 -0.228,-0.502 -0.723,-0.845 -1.307,-0.845 -0.582,0 -1.074,0.343 -1.304,0.845 -0.082,0.178 -0.136,0.378 -0.136,0.593 0.003,0.795 0.647,1.437 1.443,1.437 z m 22.334,30.161 v 4.202 h 8.002 v 5.603 H 27.229 v -5.603 h 8.005 V 84.267 H 3.343 V 27.451 H 44.629 L 19.921,2.741 22.66,0 47.035,24.381 71.415,0 74.156,2.741 49.446,27.451 H 90.728 V 84.266 H 58.842 Z m -38.763,-32.225 -0.508,0.11 c -0.111,0 -0.243,0.004 -0.4,-0.176 h -0.002 c 0,0 -0.004,-0.012 -0.007,-0.021 -0.127,-0.157 -0.272,-0.449 -0.435,-0.985 -0.419,0.453 -0.669,1.138 -0.669,1.899 0,1.378 0.796,2.5 1.772,2.5 l 0.143,-0.05 0.31,-0.046 0.101,0.297 c 0.376,1.108 0.92,2.121 1.577,3.043 1.153,1.61 2.697,2.893 4.476,3.743 1.534,0.728 3.228,1.143 5.006,1.143 1.656,0 3.234,-0.376 4.685,-1.013 1.911,-0.844 3.571,-2.167 4.792,-3.873 0.66,-0.922 1.201,-1.935 1.575,-3.043 l 0.101,-0.297 0.304,0.047 c 0.075,0.009 0.138,0.034 0.175,0.05 0.002,0 0.002,0 0.002,0 0.955,0 1.748,-1.122 1.748,-2.5 0,-1.09 -0.515,-2.016 -1.257,-2.336 -0.127,0.744 -0.254,1.154 -0.372,1.369 -0.021,0.05 -0.049,0.091 -0.076,0.13 l -0.003,-0.005 c -0.107,0.133 -0.203,0.133 -0.28,0.133 h -0.811 l 0.441,-0.521 c -0.046,-0.303 -0.332,-1.175 -0.962,-2.183 -0.288,0.21 -0.623,0.388 -1.025,0.507 -0.506,0.144 -2.717,0.374 -4.09,-1.564 -0.553,-0.776 -0.865,-2.512 -0.925,-2.862 -1.11,2.135 -2.909,3.136 -5.089,2.719 -1.103,-0.21 -2.161,-0.311 -3.145,-0.311 -5.374,0 -7.21,3.116 -7.364,3.732 z m 9.687,22.426 h 3.064 l 1.5,-5.447 1.544,-5.621 c -1.393,0.534 -2.881,0.854 -4.433,0.854 -1.673,0 -3.273,-0.369 -4.754,-0.98 l 1.581,5.748 z m 55.146,0 V 33.265 H 9.158 v 41.207 h 2.018 c 0.486,-4.519 2.447,-8.592 5.391,-11.729 V 51.205 c 0,-9.15 6.664,-16.579 14.873,-16.579 8.214,0 14.874,7.428 14.874,16.579 v 11.538 c 2.944,3.143 4.903,7.217 5.389,11.729 h 33.21 V 74.468 Z M 70.973,56.146 v 0 l -0.977,-5.186 -0.794,-0.011 -0.789,-0.01 -1.077,5.206 -1.134,-5.233 -0.775,-0.004 -0.775,-0.014 1.909,7.153 0.707,0.004 0.71,0.014 1.179,-5.602 1.086,5.62 0.714,0.014 0.705,0.009 2.058,-7.112 -0.748,-0.004 -0.753,-0.014 z M 66.202,44.509 c -0.002,0 -0.007,0 -0.011,0 l -0.051,4.821 3.81,0.041 c -0.828,-1.708 -2.085,-3.349 -3.748,-4.862 z m 8.133,4.913 c -1.47,-2.481 -3.96,-4.271 -6.907,-4.777 1.484,1.487 2.609,3.069 3.359,4.731 z m -4.615,10.333 -3.692,-0.046 -0.051,4.612 c 1.628,-1.414 2.88,-2.951 3.743,-4.566 z m -4.496,4.555 0.051,-4.601 -3.691,-0.036 c 0.827,1.629 2.048,3.188 3.64,4.637 z m 1.72,0.153 c 3.067,-0.379 5.707,-2.14 7.276,-4.658 l -3.659,-0.036 c -0.825,1.656 -2.039,3.234 -3.617,4.694 z m -9.866,-4.838 c 1.508,2.55 4.113,4.363 7.174,4.815 -1.546,-1.499 -2.726,-3.098 -3.515,-4.777 z m 20.4,-5.696 c -0.716,-0.173 -1.182,-0.314 -1.396,-0.434 -0.226,-0.123 -0.338,-0.287 -0.336,-0.502 0,-0.291 0.11,-0.533 0.331,-0.697 0.215,-0.15 0.511,-0.24 0.89,-0.23 0.434,0 0.785,0.111 1.059,0.308 0.265,0.201 0.41,0.468 0.436,0.812 l 1.453,0.014 c -0.046,-0.717 -0.319,-1.282 -0.816,-1.706 -0.493,-0.43 -1.146,-0.639 -1.943,-0.652 -0.854,-0.01 -1.533,0.191 -2.04,0.583 -0.501,0.402 -0.762,0.954 -0.771,1.639 -0.005,0.627 0.183,1.076 0.557,1.377 0.374,0.292 1.129,0.58 2.258,0.835 0.614,0.146 1.013,0.283 1.2,0.411 0.189,0.128 0.285,0.323 0.278,0.593 0,0.273 -0.137,0.483 -0.406,0.634 -0.267,0.146 -0.637,0.224 -1.115,0.22 -0.459,-0.005 -0.823,-0.109 -1.079,-0.319 -0.256,-0.201 -0.39,-0.493 -0.401,-0.876 L 74.2,55.923 c 0.029,0.766 0.292,1.363 0.796,1.788 0.507,0.424 1.204,0.644 2.105,0.647 0.901,0.01 1.608,-0.173 2.142,-0.565 0.534,-0.388 0.801,-0.917 0.812,-1.588 0.004,-0.661 -0.164,-1.149 -0.514,-1.45 -0.339,-0.306 -1.027,-0.589 -2.063,-0.826 z m -20.284,-3.107 -0.702,-0.01 -0.693,-0.009 -0.055,5.014 -2.806,-5.039 -0.78,-0.009 -0.78,-0.012 -0.073,7.134 0.696,0.009 0.693,0.005 0.052,-5.135 2.889,5.173 0.738,0.005 0.739,0.005 z m 8.19,-1.499 0.048,-4.816 c -0.005,0 -0.007,0 -0.009,0 -1.7,1.478 -2.988,3.083 -3.849,4.777 z m -1.527,2.836 0.007,-0.635 0.005,-0.632 -5.247,-0.052 -0.077,7.13 5.411,0.055 0.007,-0.632 0.004,-0.632 -3.921,-0.048 0.019,-1.856 3.485,0.043 0.009,-0.618 0.007,-0.613 -3.49,-0.041 0.019,-1.51 z m 0.336,-7.55 c -2.952,0.441 -5.484,2.187 -7.003,4.623 l 3.554,0.048 c 0.777,-1.653 1.937,-3.218 3.449,-4.671 z" />
</g><text
   transform="scale(1.0275601,0.97317908)"
   id="text850"
   y="93.310204"
   x="15.723886"
   style="font-style:normal;font-weight:normal;font-size:48.87900925px;line-height:1.25;font-family:sans-serif;letter-spacing:0px;word-spacing:0px;fill:#055400;fill-opacity:1;stroke:#000000;stroke-width:2.62905312;stroke-miterlimit:4;stroke-dasharray:none;stroke-opacity:1"
   xml:space="preserve"><tspan
     style="font-style:normal;font-variant:normal;font-weight:bold;font-stretch:normal;font-family:sans-serif;-inkscape-font-specification:'sans-serif Bold';fill:#055400;fill-opacity:1;stroke:#000000;stroke-width:2.62905312;stroke-miterlimit:4;stroke-dasharray:none;stroke-opacity:1"
     y="93.310204"
     x="15.723886"
     id="tspan848"
     sodipodi:role="line">AV</tspan></text>

</g>




</svg>