<?xml version="1.0" encoding="UTF-8" standalone="no"?>
<!-- Generator: Adobe Illustrator 19.1.0, SVG Export Plug-In . SVG Version: 6.00 Build 0)  -->

<svg
   xmlns:dc="http://purl.org/dc/elements/1.1/"
   xmlns:cc="http://creativecommons.org/ns#"
   xmlns:rdf="http://www.w3.org/1999/02/22-rdf-syntax-ns#"
   xmlns:svg="http://www.w3.org/2000/svg"
   xmlns="http://www.w3.org/2000/svg"
   xmlns:sodipodi="http://sodipodi.sourceforge.net/DTD/sodipodi-0.dtd"
   xmlns:inkscape="http://www.inkscape.org/namespaces/inkscape"
   version="1.1"
   id="Capa_1"
   x="0px"
   y="0px"
   viewBox="0 0 300.00001 300.00001"
   xml:space="preserve"
   sodipodi:docname="3_verifica_impianto_sat.svg"
   inkscape:version="0.92.2 2405546, 2018-03-11"><metadata
   id="metadata41"><rdf:RDF><cc:Work
       rdf:about=""><dc:format>image/svg+xml</dc:format><dc:type
         rdf:resource="http://purl.org/dc/dcmitype/StillImage" /><dc:title /></cc:Work></rdf:RDF></metadata><defs
   id="defs39" /><sodipodi:namedview
   pagecolor="#ffffff"
   bordercolor="#666666"
   borderopacity="1"
   objecttolerance="10"
   gridtolerance="10"
   guidetolerance="10"
   inkscape:pageopacity="0"
   inkscape:pageshadow="2"
   inkscape:window-width="1368"
   inkscape:window-height="667"
   id="namedview37"
   showgrid="false"
   inkscape:zoom="1.0829213"
   inkscape:cx="116.82262"
   inkscape:cy="141.17579"
   inkscape:window-x="0"
   inkscape:window-y="0"
   inkscape:window-maximized="0"
   inkscape:current-layer="Capa_1" />
<g
   id="g4"
   style="fill:#000000;fill-opacity:1;stroke:#000000;stroke-width:5;stroke-miterlimit:4;stroke-dasharray:none;stroke-opacity:1"
   transform="matrix(0.82060106,0,0,0.83142864,13.862418,12.955272)">
	<path
   d="m 223.982,229.515 c 34.422,0 67.096,-13.201 91.994,-37.154 l 4.717,-4.544 -90.58,-90.599 30.123,-30.123 c 2.423,1.086 5.09,1.722 7.911,1.722 10.707,0 19.396,-8.689 19.396,-19.403 0,-10.714 -8.689,-19.409 -19.396,-19.409 -10.714,0 -19.409,8.696 -19.409,19.409 0,3.181 0.848,6.138 2.204,8.785 L 221.019,88.109 132.907,0 128.363,4.724 c -23.966,24.904 -37.16,57.578 -37.16,92 0,29.904 10.058,57.443 26.819,79.673 -4.345,3.638 -7.16,9.036 -7.16,15.142 0,2.828 0.623,5.514 1.697,7.956 L 54.293,257.761 H 29.319 c -10.63,0 -19.281,8.651 -19.281,19.28 v 34.409 c 0,10.624 8.651,19.281 19.281,19.281 h 199.232 c 10.63,0 19.281,-8.657 19.281,-19.281 v -34.409 c 0,-10.63 -8.651,-19.28 -19.281,-19.28 H 207.162 L 164.79,215.389 c 17.848,8.972 37.906,14.126 59.192,14.126 z M 104.057,96.737 c 0,-28.901 10.309,-56.434 29.152,-78.253 l 169.019,169.032 c -21.806,18.85 -49.345,29.146 -78.247,29.146 -27.674,0 -53.111,-9.505 -73.427,-25.309 -0.129,-10.861 -8.959,-19.647 -19.84,-19.647 -0.071,0 -0.129,0.019 -0.18,0.019 -16.522,-20.559 -26.477,-46.62 -26.477,-74.988 z m 17.018,121.525 v 39.531 H 81.544 Z m 113.903,58.818 v 34.409 c 0,3.548 -2.879,6.427 -6.427,6.427 H 29.319 c -3.548,0 -6.427,-2.879 -6.427,-6.427 V 277.08 c 0,-3.548 2.879,-6.427 6.427,-6.427 h 199.232 c 3.548,0 6.427,2.88 6.427,6.427 z M 140.356,257.8 v -39.538 l 39.531,39.538 z"
   id="path2"
   style="fill:#000000;fill-opacity:1;stroke:#000000;stroke-width:5;stroke-miterlimit:4;stroke-dasharray:none;stroke-opacity:1"
   inkscape:connector-curvature="0" />
</g>
<g
   id="g6"
   transform="translate(0,-30.730988)">
</g>
<g
   id="g8"
   transform="translate(0,-30.730988)">
</g>
<g
   id="g10"
   transform="translate(0,-30.730988)">
</g>
<g
   id="g12"
   transform="translate(0,-30.730988)">
</g>
<g
   id="g14"
   transform="translate(0,-30.730988)">
</g>
<g
   id="g16"
   transform="translate(0,-30.730988)">
</g>
<g
   id="g18"
   transform="translate(0,-30.730988)">
</g>
<g
   id="g20"
   transform="translate(0,-30.730988)">
</g>
<g
   id="g22"
   transform="translate(0,-30.730988)">
</g>
<g
   id="g24"
   transform="translate(0,-30.730988)">
</g>
<g
   id="g26"
   transform="translate(0,-30.730988)">
</g>
<g
   id="g28"
   transform="translate(0,-30.730988)">
</g>
<g
   id="g30"
   transform="translate(0,-30.730988)">
</g>
<g
   id="g32"
   transform="translate(0,-30.730988)">
</g>
<g
   id="g34"
   transform="translate(0,-30.730988)">
</g>
</svg>