<?xml version="1.0" encoding="UTF-8" standalone="no"?>
<!-- Generator: Adobe Illustrator 18.0.0, SVG Export Plug-In . SVG Version: 6.00 Build 0)  -->

<svg
   xmlns:dc="http://purl.org/dc/elements/1.1/"
   xmlns:cc="http://creativecommons.org/ns#"
   xmlns:rdf="http://www.w3.org/1999/02/22-rdf-syntax-ns#"
   xmlns:svg="http://www.w3.org/2000/svg"
   xmlns="http://www.w3.org/2000/svg"
   xmlns:sodipodi="http://sodipodi.sourceforge.net/DTD/sodipodi-0.dtd"
   xmlns:inkscape="http://www.inkscape.org/namespaces/inkscape"
   version="1.1"
   id="Capa_1"
   x="0px"
   y="0px"
   viewBox="0 0 300 300"
   xml:space="preserve"
   sodipodi:docname="4_linea_dati.svg"
   inkscape:version="0.92.2 2405546, 2018-03-11"><metadata
   id="metadata39"><rdf:RDF><cc:Work
       rdf:about=""><dc:format>image/svg+xml</dc:format><dc:type
         rdf:resource="http://purl.org/dc/dcmitype/StillImage" /><dc:title /></cc:Work></rdf:RDF></metadata><defs
   id="defs37" /><sodipodi:namedview
   pagecolor="#ffffff"
   bordercolor="#666666"
   borderopacity="1"
   objecttolerance="10"
   gridtolerance="10"
   guidetolerance="10"
   inkscape:pageopacity="0"
   inkscape:pageshadow="2"
   inkscape:window-width="1220"
   inkscape:window-height="683"
   id="namedview35"
   showgrid="false"
   inkscape:zoom="0.78738154"
   inkscape:cx="20.847347"
   inkscape:cy="119.59532"
   inkscape:window-x="0"
   inkscape:window-y="0"
   inkscape:window-maximized="0"
   inkscape:current-layer="Capa_1" />
<path
   d="m 242.22877,78.340367 h 26.90448 c 11.37095,0 20.58044,-9.213723 20.58044,-20.579439 V 30.867455 c 0,-11.36801 -9.20949,-20.581153 -20.58044,-20.581153 h -26.90448 c -11.37326,0 -20.59763,9.213143 -20.59763,20.581153 v 6.405064 h -17.48082 c -10.23295,0 -18.57874,8.334365 -18.57874,18.5717 v 87.111821 h -26.49329 c -3.56636,-37.82238 -35.47136,-67.514783 -74.218719,-67.514783 -41.119053,0 -74.573266,33.441073 -74.573266,74.555303 0,41.11365 33.454213,74.55302 74.573266,74.55302 38.747359,0 70.652359,-29.69067 74.218719,-67.51421 h 26.49329 v 87.12098 c 0,10.24019 8.34579,18.5717 18.57874,18.5717 h 17.48082 v 6.40792 c 0,11.3663 9.2238,20.57773 20.59763,20.57773 h 26.90448 c 11.37095,0 20.58044,-9.21143 20.58044,-20.57773 v -26.89462 c 0,-11.36744 -9.20949,-20.58116 -20.58044,-20.58116 h -26.90448 c -11.37326,0 -20.59763,9.21372 -20.59763,20.58116 v 6.40563 h -17.48082 c -2.47533,0 -4.49362,-2.01574 -4.49362,-4.49177 v -87.11869 h 21.97387 v 6.4062 c 0,11.37088 9.22381,20.58116 20.59761,20.58116 h 26.90449 c 11.37096,0 20.58044,-9.21028 20.58044,-20.58116 v -26.89231 c 0,-11.36688 -9.20948,-20.5806 -20.58044,-20.5806 h -26.9039 c -11.37326,0 -20.59763,9.21372 -20.59763,20.5806 v 6.40563 H 199.65727 V 55.844791 c 0,-2.472601 2.01772,-4.491214 4.49363,-4.491214 h 17.48081 v 6.406779 c -5.7e-4,11.366288 9.22323,20.580011 20.59706,20.580011 z M 61.606211,92.541657 c -4.383659,5.829131 -8.052567,13.281863 -10.767294,21.944253 -8.501587,2.34665 -15.992877,5.53486 -22.156007,9.40435 6.602987,-14.1715 18.376567,-25.438752 32.923301,-31.348603 z M 23.418389,141.88262 c 4.255948,-6.49726 13.076536,-12.11685 24.577507,-16.02125 -1.221065,6.19554 -1.980502,12.80726 -2.235935,19.72641 H 23.051842 c 0.09105,-1.2469 0.211338,-2.48462 0.366547,-3.70516 z m 0.256014,17.83259 c -0.217064,-1.35851 -0.440425,-2.70446 -0.566432,-4.08933 h 22.65199 c 0.255433,6.91058 1.01487,13.52918 2.235935,19.73617 -11.280467,-3.83171 -19.990523,-9.32249 -24.321493,-15.64684 z m 5.833811,18.11313 c 5.998185,3.63764 13.205972,6.67299 21.330703,8.90001 2.447843,7.80767 5.658554,14.64954 9.48266,20.19356 -13.369765,-5.78504 -24.275662,-16.15062 -30.813363,-29.09357 z m 50.327378,33.45827 c -6.593821,-2.66953 -12.976303,-10.44286 -17.532951,-21.99979 5.566353,0.93488 11.452863,1.49191 17.532951,1.69572 z m 0,-30.32499 c -7.371019,-0.28054 -14.434477,-1.1908 -20.964156,-2.60199 -1.666644,-6.7852 -2.770286,-14.41139 -3.080703,-22.73375 h 24.044859 z m 0,-35.37384 H 55.790151 c 0.310428,-8.32233 1.41407,-15.93937 3.080714,-22.73315 6.529678,-1.41062 13.593137,-2.30887 20.964156,-2.60198 v 25.33513 z m 0,-35.35608 c -6.080088,0.21126 -11.967159,0.76944 -17.532951,1.70432 4.556648,-11.55923 10.939701,-19.342841 17.532951,-21.991199 z m 61.203478,13.658 c -6.16313,-3.8695 -13.65441,-7.05771 -22.156,-9.40436 -2.71473,-8.6624 -6.38305,-16.115127 -10.76443,-21.944259 14.54445,5.910427 26.31744,17.177679 32.92043,31.348619 z M 89.886409,89.944821 c 6.594393,2.648358 12.976301,10.431969 17.533511,21.991199 -5.56636,-0.93546 -11.453433,-1.49306 -17.533511,-1.70432 z m 0,30.307829 c 7.374446,0.29311 14.435031,1.19136 20.964711,2.60198 1.67869,6.79378 2.76629,14.41082 3.08071,22.73315 H 89.886409 Z m 0,35.37323 h 24.045421 c -0.31442,8.32236 -1.40202,15.94855 -3.08071,22.73375 -6.52968,1.41119 -13.590265,2.32145 -20.964711,2.60199 z m 0,55.66073 v -20.30407 c 6.080078,-0.20323 11.967151,-0.76084 17.533511,-1.69572 -4.55664,11.55636 -10.939118,19.33026 -17.533511,21.99979 z m 19.515161,-4.36413 c 3.83211,-5.54459 7.0434,-12.38646 9.48208,-20.19356 8.12529,-2.23559 15.33252,-5.26237 21.33127,-8.9 -6.53883,12.94237 -17.44417,23.30795 -30.81335,29.09356 z m 36.64373,-47.20727 c -4.32581,6.32492 -13.03874,11.80655 -24.30144,15.63882 1.20329,-6.19897 1.97248,-12.81757 2.2216,-19.72815 h 22.64857 c -0.12831,1.38487 -0.34538,2.73082 -0.56873,4.08933 z m -22.07984,-14.12743 c -0.24912,-6.91915 -1.01831,-13.53087 -2.2216,-19.72641 11.48319,3.913 20.30435,9.52458 24.56031,16.02125 0.15522,1.22054 0.27492,2.45826 0.36655,3.70516 z"
   id="path2"
   style="fill:#000000;fill-opacity:1;stroke:#000000;stroke-width:0.57261115;stroke-opacity:1"
   inkscape:connector-curvature="0" />
<g
   id="g4"
   transform="translate(0,-188.091)">
</g>
<g
   id="g6"
   transform="translate(0,-188.091)">
</g>
<g
   id="g8"
   transform="translate(0,-188.091)">
</g>
<g
   id="g10"
   transform="translate(0,-188.091)">
</g>
<g
   id="g12"
   transform="translate(0,-188.091)">
</g>
<g
   id="g14"
   transform="translate(0,-188.091)">
</g>
<g
   id="g16"
   transform="translate(0,-188.091)">
</g>
<g
   id="g18"
   transform="translate(0,-188.091)">
</g>
<g
   id="g20"
   transform="translate(0,-188.091)">
</g>
<g
   id="g22"
   transform="translate(0,-188.091)">
</g>
<g
   id="g24"
   transform="translate(0,-188.091)">
</g>
<g
   id="g26"
   transform="translate(0,-188.091)">
</g>
<g
   id="g28"
   transform="translate(0,-188.091)">
</g>
<g
   id="g30"
   transform="translate(0,-188.091)">
</g>
<g
   id="g32"
   transform="translate(0,-188.091)">
</g>
</svg>