<?xml version="1.0" encoding="UTF-8" standalone="no"?>
<!-- Generator: Adobe Illustrator 16.0.0, SVG Export Plug-In . SVG Version: 6.00 Build 0)  -->

<svg
   xmlns:dc="http://purl.org/dc/elements/1.1/"
   xmlns:cc="http://creativecommons.org/ns#"
   xmlns:rdf="http://www.w3.org/1999/02/22-rdf-syntax-ns#"
   xmlns:svg="http://www.w3.org/2000/svg"
   xmlns="http://www.w3.org/2000/svg"
   xmlns:sodipodi="http://sodipodi.sourceforge.net/DTD/sodipodi-0.dtd"
   xmlns:inkscape="http://www.inkscape.org/namespaces/inkscape"
   version="1.1"
   id="Capa_1"
   x="0px"
   y="0px"
   width="300"
   height="300"
   viewBox="0 0 299.99999 299.99999"
   xml:space="preserve"
   sodipodi:docname="7_pvr.svg"
   inkscape:version="0.92.2 2405546, 2018-03-11"><metadata
   id="metadata43"><rdf:RDF><cc:Work
       rdf:about=""><dc:format>image/svg+xml</dc:format><dc:type
         rdf:resource="http://purl.org/dc/dcmitype/StillImage" /><dc:title></dc:title></cc:Work></rdf:RDF></metadata><defs
   id="defs41" /><sodipodi:namedview
   pagecolor="#ffffff"
   bordercolor="#666666"
   borderopacity="1"
   objecttolerance="10"
   gridtolerance="10"
   guidetolerance="10"
   inkscape:pageopacity="0"
   inkscape:pageshadow="2"
   inkscape:window-width="1152"
   inkscape:window-height="625"
   id="namedview39"
   showgrid="false"
   inkscape:zoom="0.47756473"
   inkscape:cx="-101.0515"
   inkscape:cy="179.59265"
   inkscape:window-x="115"
   inkscape:window-y="55"
   inkscape:window-maximized="0"
   inkscape:current-layer="Capa_1" />

<g
   id="g8"
   transform="translate(0,24.274994)">
</g>
<g
   id="g10"
   transform="translate(0,24.274994)">
</g>
<g
   id="g12"
   transform="translate(0,24.274994)">
</g>
<g
   id="g14"
   transform="translate(0,24.274994)">
</g>
<g
   id="g16"
   transform="translate(0,24.274994)">
</g>
<g
   id="g18"
   transform="translate(0,24.274994)">
</g>
<g
   id="g20"
   transform="translate(0,24.274994)">
</g>
<g
   id="g22"
   transform="translate(0,24.274994)">
</g>
<g
   id="g24"
   transform="translate(0,24.274994)">
</g>
<g
   id="g26"
   transform="translate(0,24.274994)">
</g>
<g
   id="g28"
   transform="translate(0,24.274994)">
</g>
<g
   id="g30"
   transform="translate(0,24.274994)">
</g>
<g
   id="g32"
   transform="translate(0,24.274994)">
</g>
<g
   id="g34"
   transform="translate(0,24.274994)">
</g>
<g
   id="g36"
   transform="translate(0,24.274994)">
</g>
<g
   id="g35"
   transform="matrix(1.0799094,0,0,1.0826982,1.120987,-25.330277)"><g
     style="fill:#000000;fill-opacity:1;stroke:#000000;stroke-opacity:1"
     transform="matrix(0.79689675,0,0,0.79689675,28.000722,33.030152)"
     id="g6">
	<g
   style="fill:#000000;fill-opacity:1;stroke:#000000;stroke-opacity:1"
   id="g4">
		<path
   style="fill:#000000;fill-opacity:1;stroke:#000000;stroke-opacity:1"
   sodipodi:nodetypes="ssscsccsscccssssssssssssss"
   inkscape:connector-curvature="0"
   id="path2"
   d="M 137.862,0 C 61.726,0 0,61.726 0,137.862 c 0,76.14 61.726,137.862 137.862,137.862 76.139,0 137.862,-61.723 137.862,-137.862 C 275.725,61.726 214.001,0 137.862,0 Z m -28.93097,133.33659 -49.968997,28.656 c -8.606,4.93 -15.583,0.891 -15.583,-9.041 V 95.836589 c 0,-9.926002 6.978,-13.973002 15.583,-9.030002 l 49.968997,28.656003 c 8.606,4.934 8.606,12.934 0,17.874 z m 73.32493,18.299 c 0,9.922 -5.442,17.968 -12.169,17.968 -6.722,0 -12.171,-8.046 -12.171,-17.968 V 97.151589 c 0,-9.921002 5.449,-17.971002 12.171,-17.971002 6.727,0 12.169,8.05 12.169,17.971002 z m 50.507,0 c 0,9.922 -5.447,17.968 -12.174,17.968 -6.726,0 -12.174,-8.046 -12.174,-17.968 V 97.151589 c 0,-9.921002 5.448,-17.971002 12.174,-17.971002 6.727,0 12.174,8.05 12.174,17.971002 z" />
	</g>
</g><g
     transform="matrix(0.94444741,0,0,0.94444741,7.6586173,31.141257)"
     id="g929"><rect
   style="opacity:1;fill:#000000;fill-opacity:1;stroke:none;stroke-width:4.33757973;stroke-linecap:round;stroke-linejoin:bevel;stroke-miterlimit:4;stroke-dasharray:none;stroke-opacity:1;paint-order:normal"
   id="rect922"
   width="272.22003"
   height="93.466103"
   x="1.7524891"
   y="181.93683"
   ry="0" /><text
   xml:space="preserve"
   style="font-style:normal;font-weight:normal;font-size:121.96089935px;line-height:1.25;font-family:sans-serif;letter-spacing:0px;word-spacing:0px;fill:#ffde00;fill-opacity:1;stroke:#685b00;stroke-width:5.03669405;stroke-linecap:round;stroke-linejoin:bevel;stroke-miterlimit:4;stroke-dasharray:none;stroke-opacity:1"
   x="-8.1415586"
   y="277.93967"
   id="text850"
   transform="scale(1.0210557,0.9793785)"><tspan
     sodipodi:role="line"
     id="tspan848"
     x="-8.1415586"
     y="277.93967"
     style="font-style:normal;font-variant:normal;font-weight:bold;font-stretch:normal;font-family:sans-serif;-inkscape-font-specification:'sans-serif Bold';fill:#ffde00;fill-opacity:1;stroke:#685b00;stroke-width:5.03669405;stroke-linecap:round;stroke-linejoin:bevel;stroke-miterlimit:4;stroke-dasharray:none;stroke-opacity:1">PVR</tspan></text>




</g></g>
</svg>