<?xml version="1.0" encoding="UTF-8" standalone="no"?>
<!-- Generator: Adobe Illustrator 18.1.1, SVG Export Plug-In . SVG Version: 6.00 Build 0)  -->

<svg
   xmlns:dc="http://purl.org/dc/elements/1.1/"
   xmlns:cc="http://creativecommons.org/ns#"
   xmlns:rdf="http://www.w3.org/1999/02/22-rdf-syntax-ns#"
   xmlns:svg="http://www.w3.org/2000/svg"
   xmlns="http://www.w3.org/2000/svg"
   xmlns:xlink="http://www.w3.org/1999/xlink"
   xmlns:sodipodi="http://sodipodi.sourceforge.net/DTD/sodipodi-0.dtd"
   xmlns:inkscape="http://www.inkscape.org/namespaces/inkscape"
   version="1.1"
   id="Capa_1"
   x="0px"
   y="0px"
   viewBox="0 0 300 300"
   xml:space="preserve"
   sodipodi:docname="8_db.svg"
   inkscape:version="0.92.2 2405546, 2018-03-11"><metadata
   id="metadata48"><rdf:RDF><cc:Work
       rdf:about=""><dc:format>image/svg+xml</dc:format><dc:type
         rdf:resource="http://purl.org/dc/dcmitype/StillImage" /><dc:title></dc:title></cc:Work></rdf:RDF></metadata><defs
   id="defs46"><linearGradient
   inkscape:collect="always"
   id="linearGradient847"><stop
     style="stop-color:#00aaba;stop-opacity:1;"
     offset="0"
     id="stop843" /><stop
     style="stop-color:#00aaba;stop-opacity:0;"
     offset="1"
     id="stop845" /></linearGradient>

<linearGradient
   inkscape:collect="always"
   xlink:href="#linearGradient847"
   id="linearGradient849"
   x1="1.5"
   y1="16"
   x2="30.5"
   y2="16"
   gradientUnits="userSpaceOnUse" /><linearGradient
   inkscape:collect="always"
   xlink:href="#linearGradient847"
   id="linearGradient861"
   gradientUnits="userSpaceOnUse"
   x1="1.5"
   y1="16"
   x2="30.5"
   y2="16" /><linearGradient
   inkscape:collect="always"
   xlink:href="#linearGradient847"
   id="linearGradient863"
   gradientUnits="userSpaceOnUse"
   x1="1.5"
   y1="16"
   x2="30.5"
   y2="16" /><linearGradient
   inkscape:collect="always"
   xlink:href="#linearGradient847"
   id="linearGradient865"
   gradientUnits="userSpaceOnUse"
   x1="1.5"
   y1="16"
   x2="30.5"
   y2="16" /><linearGradient
   inkscape:collect="always"
   xlink:href="#linearGradient847"
   id="linearGradient867"
   gradientUnits="userSpaceOnUse"
   x1="1.5"
   y1="16"
   x2="30.5"
   y2="16" /><linearGradient
   inkscape:collect="always"
   xlink:href="#linearGradient847"
   id="linearGradient869"
   gradientUnits="userSpaceOnUse"
   x1="1.5"
   y1="16"
   x2="30.5"
   y2="16" /></defs><sodipodi:namedview
   pagecolor="#ffffff"
   bordercolor="#666666"
   borderopacity="1"
   objecttolerance="10"
   gridtolerance="10"
   guidetolerance="10"
   inkscape:pageopacity="0"
   inkscape:pageshadow="2"
   inkscape:window-width="1920"
   inkscape:window-height="879"
   id="namedview44"
   showgrid="false"
   inkscape:zoom="0.83774718"
   inkscape:cx="328.03838"
   inkscape:cy="37.344057"
   inkscape:window-x="0"
   inkscape:window-y="0"
   inkscape:window-maximized="1"
   inkscape:current-layer="Capa_1" />

<g
   id="g13"
   transform="translate(0,268)">
</g>
<g
   id="g15"
   transform="translate(0,268)">
</g>
<g
   id="g17"
   transform="translate(0,268)">
</g>
<g
   id="g19"
   transform="translate(0,268)">
</g>
<g
   id="g21"
   transform="translate(0,268)">
</g>
<g
   id="g23"
   transform="translate(0,268)">
</g>
<g
   id="g25"
   transform="translate(0,268)">
</g>
<g
   id="g27"
   transform="translate(0,268)">
</g>
<g
   id="g29"
   transform="translate(0,268)">
</g>
<g
   id="g31"
   transform="translate(0,268)">
</g>
<g
   id="g33"
   transform="translate(0,268)">
</g>
<g
   id="g35"
   transform="translate(0,268)">
</g>
<g
   id="g37"
   transform="translate(0,268)">
</g>
<g
   id="g39"
   transform="translate(0,268)">
</g>
<g
   id="g41"
   transform="translate(0,268)">
</g>
<g
   id="g859"
   transform="matrix(9.3615334,0,0,9.6073041,0.21546143,-2.0773277)"><g
   style="fill:#00aaba;fill-opacity:1;stroke:url(#linearGradient849);stroke-opacity:1"
   transform="matrix(0.80139374,0,0,0.67640876,3.1777002,1.5784918)"
   id="g11">
	<g
   style="fill:#00aaba;fill-opacity:1;stroke:url(#linearGradient869);stroke-opacity:1"
   id="data">
		<path
   inkscape:connector-curvature="0"
   id="path2"
   d="M 16,0 C 9.256,0 2,2.033 2,6.5 v 19 c 0,4.465 7.256,6.5 14,6.5 6.743,0 14,-2.035 14,-6.5 V 6.5 C 30,2.033 22.742,0 16,0 Z M 28,25.5 C 28,27.984 22.627,30 16,30 9.372,30 4,27.984 4,25.5 V 21.764 C 6.066,23.893 11.05,25 16,25 c 4.95,0 9.934,-1.107 12,-3.236 z m 0,-6 H 27.996 C 27.996,19.51 28,19.521 28,19.531 28,22 22.627,24 16,24 9.373,24 4,22 4,19.531 4,19.521 4.004,19.51 4.004,19.5 H 4 V 15.764 C 6.066,17.893 11.05,19 16,19 c 4.95,0 9.934,-1.107 12,-3.236 z m 0,-6 H 27.996 C 27.996,13.51 28,13.521 28,13.531 28,16 22.627,18 16,18 9.373,18 4,16 4,13.531 4,13.521 4.004,13.51 4.004,13.5 H 4 V 10.064 C 6.621,12.061 11.425,13 16,13 c 4.575,0 9.379,-0.939 12,-2.936 z M 16,11 C 9.372,11 4,8.984 4,6.5 4,4.014 9.372,2 16,2 22.627,2 28,4.014 28,6.5 28,8.984 22.627,11 16,11 Z"
   style="fill:#00aaba;fill-opacity:1;stroke:url(#linearGradient861);stroke-opacity:1" />
		<circle
   id="circle4"
   r="1"
   cy="26"
   cx="25"
   style="fill:#00aaba;fill-opacity:1;stroke:url(#linearGradient863);stroke-opacity:1" />
		<circle
   id="circle6"
   r="1"
   cy="20"
   cx="25"
   style="fill:#00aaba;fill-opacity:1;stroke:url(#linearGradient865);stroke-opacity:1" />
		<circle
   id="circle8"
   r="1"
   cy="14"
   cx="25"
   style="fill:#00aaba;fill-opacity:1;stroke:url(#linearGradient867);stroke-opacity:1" />
	</g>
</g><text
   transform="scale(0.98882772,1.0112985)"
   id="text860"
   y="29.843157"
   x="0.61326796"
   style="font-style:normal;font-weight:normal;font-size:19.29334831px;line-height:1.25;font-family:sans-serif;letter-spacing:0px;word-spacing:0px;fill:#00327d;fill-opacity:1;stroke:#000000;stroke-width:0.48233372;stroke-opacity:1"
   xml:space="preserve"><tspan
     style="font-style:normal;font-variant:normal;font-weight:bold;font-stretch:normal;font-family:sans-serif;-inkscape-font-specification:'sans-serif Bold';fill:#00327d;fill-opacity:1;stroke:#000000;stroke-width:0.48233372;stroke-opacity:1"
     y="29.843157"
     x="0.61326796"
     id="tspan858"
     sodipodi:role="line">DB</tspan></text>

</g></svg>