<?xml version="1.0" encoding="UTF-8" standalone="no"?>
<!-- Generator: Adobe Illustrator 19.0.0, SVG Export Plug-In . SVG Version: 6.00 Build 0)  -->

<svg
   xmlns:dc="http://purl.org/dc/elements/1.1/"
   xmlns:cc="http://creativecommons.org/ns#"
   xmlns:rdf="http://www.w3.org/1999/02/22-rdf-syntax-ns#"
   xmlns:svg="http://www.w3.org/2000/svg"
   xmlns="http://www.w3.org/2000/svg"
   xmlns:sodipodi="http://sodipodi.sourceforge.net/DTD/sodipodi-0.dtd"
   xmlns:inkscape="http://www.inkscape.org/namespaces/inkscape"
   version="1.1"
   id="Capa_1"
   x="0px"
   y="0px"
   viewBox="0 0 300 300"
   xml:space="preserve"
   sodipodi:docname="9_server_remoto.svg"
   inkscape:version="0.92.2 2405546, 2018-03-11"><metadata
   id="metadata103"><rdf:RDF><cc:Work
       rdf:about=""><dc:format>image/svg+xml</dc:format><dc:type
         rdf:resource="http://purl.org/dc/dcmitype/StillImage" /><dc:title></dc:title></cc:Work></rdf:RDF></metadata><defs
   id="defs101" /><sodipodi:namedview
   pagecolor="#ffffff"
   bordercolor="#666666"
   borderopacity="1"
   objecttolerance="10"
   gridtolerance="10"
   guidetolerance="10"
   inkscape:pageopacity="0"
   inkscape:pageshadow="2"
   inkscape:window-width="1193"
   inkscape:window-height="646"
   id="namedview99"
   showgrid="false"
   inkscape:zoom="0.61888686"
   inkscape:cx="-3.1595778"
   inkscape:cy="257.77948"
   inkscape:window-x="0"
   inkscape:window-y="0"
   inkscape:window-maximized="0"
   inkscape:current-layer="Capa_1" />










<g
   id="g895"
   transform="matrix(0.72367006,0,0,0.79336338,10.378694,-5.2268161)"
   style="fill:#000000;fill-opacity:1;stroke:#000000;stroke-opacity:1"><g
     transform="matrix(0.86230623,0,0,0.86230623,-0.06884688,2.6528805)"
     style="fill:#000000;fill-opacity:1;stroke:#000000;stroke-opacity:1"
     id="g6">
	<g
   style="fill:#000000;fill-opacity:1;stroke:#000000;stroke-opacity:1"
   id="g4">
		<path
   inkscape:connector-curvature="0"
   style="fill:#000000;fill-opacity:1;stroke:#000000;stroke-opacity:1"
   id="path2"
   d="m 232,387.879 h -8 v -120 c 0,-13.255 -10.745,-24 -24,-24 H 40 c -13.255,0 -24,10.745 -24,24 v 120 H 8 c -4.418,0 -8,3.582 -8,8 v 16 c 0,8.837 7.163,16 16,16 h 208 c 8.837,0 16,-7.163 16,-16 v -16 c 0,-4.418 -3.582,-8 -8,-8 z m -200,-120 c 0,-4.418 3.582,-8 8,-8 h 160 c 4.418,0 8,3.582 8,8 v 120 H 32 Z m 192,144 H 16 v -8 h 208 z" />
	</g>
</g><g
     transform="matrix(0.86230623,0,0,0.86230623,-0.06884688,2.6528805)"
     style="fill:#000000;fill-opacity:1;stroke:#000000;stroke-opacity:1"
     id="g12">
	<g
   style="fill:#000000;fill-opacity:1;stroke:#000000;stroke-opacity:1"
   id="g10">
		<path
   inkscape:connector-curvature="0"
   style="fill:#000000;fill-opacity:1;stroke:#000000;stroke-opacity:1"
   id="path8"
   d="M 192,267.879 H 48 c -4.418,0 -8,3.582 -8,8 v 96 c 0,4.418 3.582,8 8,8 h 144 c 4.418,0 8,-3.582 8,-8 v -96 c 0,-4.418 -3.582,-8 -8,-8 z m -8,96 H 56 v -80 h 128 z" />
	</g>
</g><g
     transform="matrix(0.86230623,0,0,0.86230623,-0.06884688,2.6528805)"
     style="fill:#000000;fill-opacity:1;stroke:#000000;stroke-opacity:1"
     id="g18">
	<g
   style="fill:#000000;fill-opacity:1;stroke:#000000;stroke-opacity:1"
   id="g16">
		<path
   inkscape:connector-curvature="0"
   style="fill:#000000;fill-opacity:1;stroke:#000000;stroke-opacity:1"
   id="path14"
   d="M 438.496,105.935 C 432.605,98.695 424.381,93.726 415.232,91.879 414.81,70.16 397.303,52.656 375.584,52.239 371.211,30.369 349.936,16.184 328.065,20.558 c -15.987,3.197 -28.484,15.694 -31.681,31.681 -21.708,0.43 -39.199,17.932 -39.616,39.64 -21.885,4.433 -36.033,25.769 -31.6,47.654 0.016,0.078 0.032,0.156 0.048,0.234 4.276,19.013 21.315,32.411 40.8,32.08 h 140 c 19.485,0.331 36.524,-13.067 40.8,-32.08 2.455,-11.954 -0.601,-24.379 -8.32,-33.832 z m -7.4,30.744 c -2.772,11.529 -13.243,19.54 -25.096,19.2 H 266 c -11.855,0.346 -22.329,-7.667 -25.096,-19.2 -2.816,-13.192 5.595,-26.169 18.787,-28.985 1.551,-0.331 3.131,-0.51 4.717,-0.535 4.383,0.554 8.386,-2.551 8.939,-6.934 0.103,-0.813 0.08,-1.636 -0.067,-2.442 -0.329,-1.682 -0.503,-3.39 -0.52,-5.104 0.018,-13.458 10.926,-24.363 24.384,-24.376 1.716,0.019 3.426,0.191 5.112,0.512 4.346,0.795 8.514,-2.084 9.309,-6.43 0.151,-0.827 0.171,-1.673 0.059,-2.506 0.01,-13.462 10.932,-24.368 24.395,-24.357 13.448,0.01 24.347,10.909 24.357,24.357 -0.539,4.385 2.578,8.377 6.964,8.917 0.8,0.098 1.611,0.075 2.404,-0.069 1.685,-0.322 3.396,-0.493 5.112,-0.512 13.48,0.013 24.397,10.952 24.384,24.432 0,0.011 0,0.021 0,0.032 -0.024,1.719 -0.198,3.432 -0.52,5.12 -0.786,4.348 2.101,8.51 6.449,9.296 0.802,0.145 1.622,0.167 2.431,0.064 13.487,0.215 24.246,11.323 24.031,24.811 -0.025,1.583 -0.204,3.161 -0.535,4.709 z" />
	</g>
</g><g
     transform="matrix(0.86230623,0,0,0.86230623,-0.06884688,2.6528805)"
     style="fill:#000000;fill-opacity:1;stroke:#000000;stroke-opacity:1"
     id="g24">
	<g
   style="fill:#000000;fill-opacity:1;stroke:#000000;stroke-opacity:1"
   id="g22">
		<rect
   style="fill:#000000;fill-opacity:1;stroke:#000000;stroke-opacity:1"
   id="rect20"
   height="16"
   width="16"
   y="315.879"
   x="239.808" />
	</g>
</g><g
     transform="matrix(0.86230623,0,0,0.86230623,-0.06884688,2.6528805)"
     style="fill:#000000;fill-opacity:1;stroke:#000000;stroke-opacity:1"
     id="g30">
	<g
   style="fill:#000000;fill-opacity:1;stroke:#000000;stroke-opacity:1"
   id="g28">
		<rect
   style="fill:#000000;fill-opacity:1;stroke:#000000;stroke-opacity:1"
   id="rect26"
   height="16"
   width="16"
   y="315.879"
   x="271.80801" />
	</g>
</g><g
     transform="matrix(0.86230623,0,0,0.86230623,-0.06884688,2.6528805)"
     style="fill:#000000;fill-opacity:1;stroke:#000000;stroke-opacity:1"
     id="g36">
	<g
   style="fill:#000000;fill-opacity:1;stroke:#000000;stroke-opacity:1"
   id="g34">
		<rect
   style="fill:#000000;fill-opacity:1;stroke:#000000;stroke-opacity:1"
   id="rect32"
   height="16"
   width="16"
   y="315.879"
   x="303.80801" />
	</g>
</g><g
     transform="matrix(0.86230623,0,0,0.86230623,-0.06884688,2.6528805)"
     style="fill:#000000;fill-opacity:1;stroke:#000000;stroke-opacity:1"
     id="g42">
	<g
   style="fill:#000000;fill-opacity:1;stroke:#000000;stroke-opacity:1"
   id="g40">
		<rect
   style="fill:#000000;fill-opacity:1;stroke:#000000;stroke-opacity:1"
   id="rect38"
   height="16"
   width="16"
   y="315.879"
   x="335.80801" />
	</g>
</g><g
     transform="matrix(0.86230623,0,0,0.86230623,-0.06884688,2.6528805)"
     style="fill:#000000;fill-opacity:1;stroke:#000000;stroke-opacity:1"
     id="g48">
	<g
   style="fill:#000000;fill-opacity:1;stroke:#000000;stroke-opacity:1"
   id="g46">
		<rect
   style="fill:#000000;fill-opacity:1;stroke:#000000;stroke-opacity:1"
   id="rect44"
   height="16"
   width="16"
   y="283.879"
   x="335.80801" />
	</g>
</g><g
     transform="matrix(0.86230623,0,0,0.86230623,-0.06884688,2.6528805)"
     style="fill:#000000;fill-opacity:1;stroke:#000000;stroke-opacity:1"
     id="g54">
	<g
   style="fill:#000000;fill-opacity:1;stroke:#000000;stroke-opacity:1"
   id="g52">
		<rect
   style="fill:#000000;fill-opacity:1;stroke:#000000;stroke-opacity:1"
   id="rect50"
   height="16"
   width="16"
   y="251.879"
   x="335.80801" />
	</g>
</g><g
     transform="matrix(0.86230623,0,0,0.86230623,-0.06884688,2.6528805)"
     style="fill:#000000;fill-opacity:1;stroke:#000000;stroke-opacity:1"
     id="g60">
	<g
   style="fill:#000000;fill-opacity:1;stroke:#000000;stroke-opacity:1"
   id="g58">
		<rect
   style="fill:#000000;fill-opacity:1;stroke:#000000;stroke-opacity:1"
   id="rect56"
   height="16"
   width="16"
   y="219.879"
   x="335.80801" />
	</g>
</g><g
     transform="matrix(0.86230623,0,0,0.86230623,-0.06884688,2.6528805)"
     style="fill:#000000;fill-opacity:1;stroke:#000000;stroke-opacity:1"
     id="g66">
	<g
   style="fill:#000000;fill-opacity:1;stroke:#000000;stroke-opacity:1"
   id="g64">
		<rect
   style="fill:#000000;fill-opacity:1;stroke:#000000;stroke-opacity:1"
   id="rect62"
   height="16"
   width="16"
   y="187.879"
   x="335.80801" />
	</g>
</g></g>
<g
   id="g68"
   transform="translate(0,-147.646)">
</g>
<g
   id="g70"
   transform="translate(0,-147.646)">
</g>
<g
   id="g72"
   transform="translate(0,-147.646)">
</g>
<g
   id="g74"
   transform="translate(0,-147.646)">
</g>
<g
   id="g76"
   transform="translate(0,-147.646)">
</g>
<g
   id="g78"
   transform="translate(0,-147.646)">
</g>
<g
   id="g80"
   transform="translate(0,-147.646)">
</g>
<g
   id="g82"
   transform="translate(0,-147.646)">
</g>
<g
   id="g84"
   transform="translate(0,-147.646)">
</g>
<g
   id="g86"
   transform="translate(0,-147.646)">
</g>
<g
   id="g88"
   transform="translate(0,-147.646)">
</g>
<g
   id="g90"
   transform="translate(0,-147.646)">
</g>
<g
   id="g92"
   transform="translate(0,-147.646)">
</g>
<g
   id="g94"
   transform="translate(0,-147.646)">
</g>
<g
   id="g96"
   transform="translate(0,-147.646)">
</g>
</svg>